<svg xmlns="http://www.w3.org/2000/svg" viewBox="0 0 760 460" width="760" height="460" class="c" role="img" aria-labelledby="title desc">
<title id="title">Field accuracy against cost per 1,000 extractions</title>
<desc id="desc">Self-hosted cost is the GPU-hour rate over the throughput measured at 32 requests in flight, at 50% utilisation; break-even is against `openai/gpt-5.6-luna zero_shot` at US$0.87 per 1,000, the cheapest frontier run, from the gateway ledger.</desc>
<style>
.c { font-family: system-ui, -apple-system, "Segoe UI", sans-serif; }
.surface { fill: #fcfcfb; }
.grid { stroke: #e1e0d9; stroke-width: 1; }
.axis { stroke: #c3c2b7; stroke-width: 1; }
.ink { fill: #0b0b0b; }
.ink2 { fill: #52514e; }
.muted { fill: #898781; font-variant-numeric: tabular-nums; }
.s1 { fill: #2a78d6; } .s1l { stroke: #2a78d6; }
.s2 { fill: #eb6834; } .s2l { stroke: #eb6834; }
.ring { stroke: #fcfcfb; stroke-width: 2; }
.front { fill: none; stroke: #52514e; stroke-width: 1; stroke-dasharray: 3 3; }
@media (prefers-color-scheme: dark) {
  .surface { fill: #1a1a19; }
  .grid { stroke: #2c2c2a; }
  .axis { stroke: #383835; }
  .ink { fill: #ffffff; }
  .ink2 { fill: #c3c2b7; }
  .s1 { fill: #3987e5; } .s1l { stroke: #3987e5; }
  .s2 { fill: #d95926; } .s2l { stroke: #d95926; }
  .ring { stroke: #1a1a19; }
  .front { stroke: #c3c2b7; }
}
</style>
<rect class="surface" width="760" height="460" rx="8"/>
<line class="grid" x1="72.0" y1="56" x2="72.0" y2="396"/>
<text class="muted" x="72.0" y="414" font-size="12" text-anchor="middle">US$0.01</text>
<line class="grid" x1="238.0" y1="56" x2="238.0" y2="396"/>
<text class="muted" x="238.0" y="414" font-size="12" text-anchor="middle">US$0.1</text>
<line class="grid" x1="404.0" y1="56" x2="404.0" y2="396"/>
<text class="muted" x="404.0" y="414" font-size="12" text-anchor="middle">US$1</text>
<line class="grid" x1="570.0" y1="56" x2="570.0" y2="396"/>
<text class="muted" x="570.0" y="414" font-size="12" text-anchor="middle">US$10</text>
<line class="grid" x1="736.0" y1="56" x2="736.0" y2="396"/>
<text class="muted" x="736.0" y="414" font-size="12" text-anchor="middle">US$100</text>
<line class="grid" x1="72" y1="396.0" x2="736" y2="396.0"/>
<text class="muted" x="64" y="400.0" font-size="12" text-anchor="end">95%</text>
<line class="grid" x1="72" y1="282.7" x2="736" y2="282.7"/>
<text class="muted" x="64" y="286.7" font-size="12" text-anchor="end">96%</text>
<line class="grid" x1="72" y1="169.3" x2="736" y2="169.3"/>
<text class="muted" x="64" y="173.3" font-size="12" text-anchor="end">97%</text>
<line class="grid" x1="72" y1="56.0" x2="736" y2="56.0"/>
<text class="muted" x="64" y="60.0" font-size="12" text-anchor="end">98%</text>
<line class="axis" x1="72" y1="396" x2="736" y2="396"/>
<text class="ink2" x="404.0" y="440" font-size="13" text-anchor="middle">Cost per 1,000 extractions, log scale</text>
<text class="ink2" font-size="13" text-anchor="middle" transform="translate(18 226.0) rotate(-90)">Fields correct, 95% interval</text>
<circle class="s1 ring" cx="78" cy="24" r="5"/>
<text class="ink" x="90" y="28" font-size="13">Frontier API</text>
<path class="s2 ring" d="M208.0,18.0L214.0,24.0L208.0,30.0L202.0,24.0Z"/>
<text class="ink" x="220" y="28" font-size="13">Self-hosted fine-tune</text>
<path class="front" d="M224.2,178.7H286.6V133.7H299.7V127.3"/>
<g><title>gpt-5.6-luna zero-shot: 96.2% (95.8% to 96.6%), US$0.873 per 1,000</title>
<line class="s1l" stroke-width="1.5" x1="394.2" y1="304.1" x2="394.2" y2="211.9"/>
<circle class="s1 ring" cx="394.2" cy="258.0" r="5"/>
</g>
<g><title>gpt-5.6-luna few-shot: 96.2% (95.7% to 96.7%), US$1.616 per 1,000</title>
<line class="s1l" stroke-width="1.5" x1="438.6" y1="312.7" x2="438.6" y2="208.7"/>
<circle class="s1 ring" cx="438.6" cy="259.1" r="5"/>
</g>
<g><title>claude-sonnet-5 zero-shot: 96.1% (95.7% to 96.5%), US$11.956 per 1,000</title>
<line class="s1l" stroke-width="1.5" x1="582.9" y1="321.2" x2="582.9" y2="223.7"/>
<circle class="s1 ring" cx="582.9" cy="271.9" r="5"/>
</g>
<g><title>gpt-5.6-sol zero-shot: 95.9% (95.3% to 96.5%), US$15.459 per 1,000</title>
<line class="s1l" stroke-width="1.5" x1="601.4" y1="363.0" x2="601.4" y2="229.1"/>
<circle class="s1 ring" cx="601.4" cy="293.4" r="5"/>
</g>
<g><title>claude-sonnet-5 few-shot: 96.3% (95.8% to 96.8%), US$22.915 per 1,000</title>
<line class="s1l" stroke-width="1.5" x1="629.8" y1="303.1" x2="629.8" y2="193.7"/>
<circle class="s1 ring" cx="629.8" cy="245.2" r="5"/>
</g>
<g><title>gpt-5.6-sol few-shot: 96.9% (96.6% to 97.3%), US$30.429 per 1,000</title>
<line class="s1l" stroke-width="1.5" x1="650.2" y1="219.4" x2="650.2" y2="131.6"/>
<circle class="s1 ring" cx="650.2" cy="175.5" r="5"/>
</g>
<g><title>2b-r64-lr1e-4-nall-s0-e1 bf16: 96.9% (96.5% to 97.3%), US$0.083 per 1,000</title>
<line class="s2l" stroke-width="1.5" x1="224.2" y1="224.8" x2="224.2" y2="134.8"/>
<path class="s2 ring" d="M224.2,172.7L230.2,178.7L224.2,184.7L218.2,178.7Z"/>
</g>
<g><title>2b-r64-lr1e-4-nall-s0-e1 gguf-q4_k_m: 96.2% (95.4% to 96.8%), US$0.404 per 1,000</title>
<line class="s2l" stroke-width="1.5" x1="338.7" y1="345.9" x2="338.7" y2="188.4"/>
<path class="s2 ring" d="M338.7,254.2L344.7,260.2L338.7,266.2L332.7,260.2Z"/>
</g>
<g><title>2b-r64-lr1e-4-nall-s0-e1 gguf-q8_0: 96.7% (96.2% to 97.2%), US$0.387 per 1,000</title>
<line class="s2l" stroke-width="1.5" x1="335.5" y1="256.9" x2="335.5" y2="147.6"/>
<path class="s2 ring" d="M335.5,192.0L341.5,198.0L335.5,204.0L329.5,198.0Z"/>
</g>
<g><title>7b-r64-lr1e-4-nall-s0-e1 awq: 97.2% (96.8% to 97.5%), US$0.196 per 1,000</title>
<line class="s2l" stroke-width="1.5" x1="286.6" y1="196.9" x2="286.6" y2="109.0"/>
<path class="s2 ring" d="M286.6,145.9L292.6,151.9L286.6,157.9L280.6,151.9Z"/>
</g>
<g><title>7b-r64-lr1e-4-nall-s0-e1 bf16: 97.4% (97.0% to 97.7%), US$0.235 per 1,000</title>
<line class="s2l" stroke-width="1.5" x1="299.7" y1="171.2" x2="299.7" y2="85.5"/>
<path class="s2 ring" d="M299.7,121.3L305.7,127.3L299.7,133.3L293.7,127.3Z"/>
</g>
<g><title>7b-r64-lr1e-4-nall-s0-e1 gptq: 97.3% (96.9% to 97.7%), US$0.196 per 1,000</title>
<line class="s2l" stroke-width="1.5" x1="286.6" y1="180.9" x2="286.6" y2="89.8"/>
<path class="s2 ring" d="M286.6,127.7L292.6,133.7L286.6,139.7L280.6,133.7Z"/>
</g>
<text class="ink" x="234.2" y="170.7" font-size="12" text-anchor="start">2b-r64-lr1e-4-nall-s0-e1 bf16</text>
<text class="ink" x="296.6" y="125.7" font-size="12" text-anchor="start">7b-r64-lr1e-4-nall-s0-e1 gptq</text>
<text class="ink" x="309.7" y="119.3" font-size="12" text-anchor="start">7b-r64-lr1e-4-nall-s0-e1 bf16</text>
</svg>
